<?xml version="1.0" standalone="no"?>
<!DOCTYPE svg PUBLIC "-//W3C//DTD SVG 20010904//EN"
 "http://www.w3.org/TR/2001/REC-SVG-20010904/DTD/svg10.dtd">
<svg version="1.0" xmlns="http://www.w3.org/2000/svg"
 width="222.000000pt" height="220.000000pt" viewBox="0 0 222.000000 220.000000"
 preserveAspectRatio="xMidYMid meet">

<g transform="translate(0.000000,220.000000) scale(0.100000,-0.100000)"
fill="#000000" stroke="none">
<path d="M855 2111 c-54 -25 -92 -62 -115 -113 -18 -39 -20 -67 -20 -279 l0
-236 -237 -5 c-259 -5 -280 -9 -339 -65 -68 -64 -67 -58 -72 -477 -5 -403 -3
-427 44 -498 39 -61 102 -91 201 -96 l83 -5 0 -133 c0 -122 2 -134 19 -144 11
-5 25 -10 32 -10 7 0 78 65 158 144 l146 145 230 3 c250 3 260 5 319 64 61 61
66 85 66 294 l0 190 23 0 c13 0 32 -10 43 -21 45 -51 314 -299 323 -299 6 0
20 9 31 20 18 18 20 33 20 160 l0 140 62 0 c136 0 227 50 271 149 20 44 21 64
21 476 0 411 -1 432 -20 475 -23 50 -80 105 -130 126 -27 11 -138 14 -576 14
-506 0 -546 -2 -583 -19z m1147 -106 c58 -42 58 -46 58 -497 0 -392 -1 -415
-20 -445 -29 -48 -62 -60 -190 -68 -63 -4 -121 -12 -127 -17 -9 -7 -13 -45
-13 -121 l0 -110 -122 120 -123 120 -275 7 c-179 5 -283 11 -299 19 -14 7 -36
27 -48 46 l-23 34 0 422 0 421 25 35 c14 19 38 39 53 46 20 9 157 12 552 10
507 -2 526 -3 552 -22z m-1282 -785 c0 -128 3 -156 19 -188 26 -51 61 -86 112
-114 41 -21 58 -23 232 -26 l187 -4 0 -174 c0 -251 -9 -264 -181 -264 -58 0
-168 -3 -245 -6 l-139 -7 -101 -99 -102 -100 -3 91 c-5 107 -7 110 -94 112
-125 2 -174 13 -199 44 -22 27 -24 41 -30 228 -4 109 -4 288 0 396 l7 196 33
33 32 32 236 0 236 0 0 -150z"/>
<path d="M1217 1728 c-75 -45 -98 -155 -52 -253 24 -51 112 -137 208 -203 l74
-51 84 60 c153 111 200 169 218 265 21 110 -51 203 -157 204 -52 0 -92 -19
-124 -60 l-24 -31 -13 23 c-35 65 -143 88 -214 46z"/>
</g>
</svg>
